<svg width="83" height="92" viewBox="0 0 83 92" fill="none" xmlns="http://www.w3.org/2000/svg">
<path d="M81.6187 0.648438C81.2437 0.234376 80.7046 0 80.1421 0H2.00152C1.43902 0 0.899956 0.234376 0.524956 0.648438C0.142142 1.0625 -0.0453577 1.61719 0.00933034 2.17969L7.04839 81.0312C7.11871 81.8594 7.69683 82.5469 8.49371 82.7812L40.5171 91.9219C40.689 91.9766 40.8765 92 41.064 92C41.2515 92 41.4312 91.9766 41.6109 91.9219L73.6578 82.7812C74.4546 82.5469 75.025 81.8594 75.1031 81.0312L82.1343 2.17969C82.189 1.61719 82.0015 1.0625 81.6187 0.648438ZM64.7671 27.8359H27.1421L28.0406 38.0156H63.8609L61.1734 68.1016L41.0562 74.1797L40.8609 74.1172L20.9781 68.0938L19.8921 55.8359H29.6343L30.0562 60.5938L41.1734 62.9219L52.0875 60.5938L53.2515 47.7188H19.1656L16.5171 18.1094H65.6343L64.7671 27.8359Z" fill="#FF5733"/>
</svg>
